<?xml version="1.0" encoding="UTF-8"?>
<svg version="1.1" xmlns="http://www.w3.org/2000/svg" width="310" height="310">
<path d="M0 0 C0.91308434 -0.0060911 1.82616868 -0.01218221 2.76692224 -0.01845789 C5.80977011 -0.03503377 8.85219704 -0.03031975 11.89508057 -0.0255127 C14.08366325 -0.03285624 16.27224207 -0.0414433 18.46081543 -0.05117798 C24.39487684 -0.0733747 30.32879931 -0.07632549 36.26289654 -0.07443047 C41.22289453 -0.07431066 46.1828632 -0.08287919 51.14285302 -0.09120798 C63.51825946 -0.11153489 75.89359711 -0.1125947 88.26901343 -0.10540086 C98.32804994 -0.10017586 108.38687487 -0.11653048 118.44586182 -0.14758301 C130.14651404 -0.18357596 141.84701542 -0.20243428 153.54772592 -0.1980443 C159.73413835 -0.19598007 165.92031267 -0.20140572 172.10668182 -0.22593689 C177.92793196 -0.24825791 183.74868592 -0.2462812 189.56993866 -0.22600937 C191.69993478 -0.22260863 193.82996464 -0.22764779 195.95991516 -0.24199295 C214.88627111 -0.36061151 226.97097367 3.51510514 241.30230713 16.58190918 C250.28552346 26.01969791 256.09182914 37.75356884 256.00921631 50.77960205 C256.01530741 51.69268639 256.02139852 52.60577073 256.0276742 53.54652429 C256.04425008 56.58937216 256.03953606 59.63179909 256.034729 62.67468262 C256.04207255 64.86326531 256.05065961 67.05184412 256.06039429 69.24041748 C256.08259101 75.17447889 256.0855418 81.10840136 256.08364677 87.04249859 C256.08352697 92.00249658 256.0920955 96.96246525 256.10042429 101.92245507 C256.1207512 114.29786151 256.12181101 126.67319916 256.11461717 139.04861549 C256.10939217 149.10765199 256.12574679 159.16647692 256.15679932 169.22546387 C256.19279227 180.92611609 256.21165059 192.62661747 256.20726061 204.32732797 C256.20519638 210.5137404 256.21062202 216.69991472 256.2351532 222.88628387 C256.25747422 228.70753401 256.25549751 234.52828797 256.23522568 240.34954071 C256.23182493 242.47953683 256.23686409 244.60956669 256.25120926 246.73951721 C256.36982782 265.66587316 252.49411117 277.75057572 239.42730713 292.08190918 C229.9895184 301.06512551 218.25564747 306.87143119 205.22961426 306.78881836 C203.85998775 306.79795501 203.85998775 306.79795501 202.46269202 306.80727625 C199.41984414 306.82385213 196.37741722 306.81913811 193.33453369 306.81433105 C191.145951 306.8216746 188.95737219 306.83026166 186.76879883 306.83999634 C180.83473741 306.86219306 174.90081495 306.86514385 168.96671772 306.86324883 C164.00671973 306.86312902 159.04675106 306.87169755 154.08676124 306.88002634 C141.7113548 306.90035325 129.33601715 306.90141306 116.96060082 306.89421922 C106.90156432 306.88899422 96.84273939 306.90534884 86.78375244 306.93640137 C75.08310022 306.97239432 63.38259884 306.99125264 51.68188834 306.98686266 C45.49547591 306.98479843 39.30930159 306.99022407 33.12293243 307.01475525 C27.3016823 307.03707627 21.48092833 307.03509956 15.6596756 307.01482773 C13.52967948 307.01142699 11.39964962 307.01646615 9.2696991 307.03081131 C-9.65665686 307.14942987 -21.74135941 303.27371322 -36.07269287 290.20690918 C-45.05590921 280.76912045 -50.86221488 269.03524952 -50.77960205 256.00921631 C-50.78569315 255.09613197 -50.79178426 254.18304763 -50.79805994 253.24229407 C-50.81463582 250.1994462 -50.8099218 247.15701927 -50.80511475 244.11413574 C-50.81245829 241.92555305 -50.82104535 239.73697424 -50.83078003 237.54840088 C-50.85297675 231.61433947 -50.85592754 225.680417 -50.85403252 219.74631977 C-50.85391271 214.78632178 -50.86248124 209.82635311 -50.87081003 204.86636329 C-50.89113694 192.49095685 -50.89219675 180.1156192 -50.88500291 167.74020287 C-50.87977791 157.68116637 -50.89613253 147.62234144 -50.92718506 137.56335449 C-50.96317801 125.86270227 -50.98203633 114.16220089 -50.97764635 102.46149039 C-50.97558212 96.27507796 -50.98100777 90.08890364 -51.00553894 83.90253448 C-51.02785996 78.08128435 -51.02588325 72.26053039 -51.00561142 66.43927765 C-51.00221068 64.30928153 -51.00724984 62.17925167 -51.021595 60.04930115 C-51.14021356 41.12294519 -47.26449691 29.03824264 -34.19769287 14.70690918 C-24.75990414 5.72369284 -13.02603321 -0.08261283 0 0 Z " fill="#141414" transform="translate(52.38519287109375,1.6055908203125)"/>
<path d="M0 0 C0.27848236 8.23707145 -0.39550329 15.76373818 -2.125 23.8125 C-2.34800781 24.88201904 -2.57101562 25.95153809 -2.80078125 27.0534668 C-11.23463106 66.67450501 -11.23463106 66.67450501 -23 82 C-22.030625 81.814375 -21.06125 81.62875 -20.0625 81.4375 C-18.5465625 81.2209375 -18.5465625 81.2209375 -17 81 C-16.67 81.33 -16.34 81.66 -16 82 C-16.08970847 85.35371655 -16.57367134 88.67463642 -17 92 C-17.11214844 92.94488281 -17.22429687 93.88976562 -17.33984375 94.86328125 C-18.65411705 103.91299168 -21.6906373 108.32735344 -28.8125 113.9375 C-30.2010813 114.96817617 -31.59447421 115.99255341 -33 117 C-32.15695313 116.83242187 -31.31390625 116.66484375 -30.4453125 116.4921875 C-28.80175781 116.18667969 -28.80175781 116.18667969 -27.125 115.875 C-25.48917969 115.56175781 -25.48917969 115.56175781 -23.8203125 115.2421875 C-22.88960937 115.16226563 -21.95890625 115.08234375 -21 115 C-20.34 115.66 -19.68 116.32 -19 117 C-19.22555373 120.40908348 -20.16067343 123.6945622 -21 127 C-21.20882812 127.83144531 -21.41765625 128.66289062 -21.6328125 129.51953125 C-23.08328221 134.54615904 -24.37636311 137.20655271 -29 140 C-30.04027344 140.53173828 -30.04027344 140.53173828 -31.1015625 141.07421875 C-42.90762611 147.16000696 -53.16696295 155.56701098 -63.7109375 163.578125 C-64.44546143 164.13419434 -65.17998535 164.69026367 -65.93676758 165.26318359 C-67.32843383 166.3184013 -68.71645295 167.37845054 -70.1003418 168.44384766 C-74.77823756 172 -74.77823756 172 -77 172 C-77.10699219 172.83273438 -77.21398437 173.66546875 -77.32421875 174.5234375 C-78.08134826 178.41849684 -79.37867884 181.94412712 -80.8125 185.625 C-83.37364493 192.35418717 -85.73782995 199.13570686 -87.9921875 205.97265625 C-88.38530373 207.16371979 -88.38530373 207.16371979 -88.78636169 208.37884521 C-90.1118277 212.40217243 -91.4279869 216.42835599 -92.7355957 220.45751953 C-93.23372563 221.97563881 -93.73201041 223.49370728 -94.23046875 225.01171875 C-94.45012299 225.69766617 -94.66977722 226.38361359 -94.89608765 227.09034729 C-97.89379852 236.1756798 -102.36986464 245.01959334 -109 252 C-114.05397937 253.28646748 -118.2504133 251.42072903 -122.984375 249.55859375 C-125.17719278 248.74900717 -125.17719278 248.74900717 -128 250 C-130.37346745 250.0949387 -132.74963954 250.12987754 -135.125 250.125 C-137.01605469 250.12886719 -137.01605469 250.12886719 -138.9453125 250.1328125 C-142 250 -142 250 -143 249 C-144.80946925 249.2435824 -146.61853595 249.49043155 -148.42578125 249.75 C-151.45042262 250.04374362 -154.39958945 249.99448308 -157.4375 249.9375 C-162.23151269 249.8876777 -166.33670391 250.36979736 -170.9609375 251.546875 C-176.41426383 252.7587253 -180.86086103 252.0570976 -186.125 250.625 C-188.62848089 249.97120242 -188.62848089 249.97120242 -191 250 C-192.83565892 251.33660271 -194.02329738 252.8266317 -195.44921875 254.5859375 C-197.47402081 256.43223056 -198.66309285 256.47228034 -201.375 256.5 C-204.92426801 256.25867332 -208.18321996 255.49448266 -211.60546875 254.51171875 C-216.96982345 253.36533952 -222.53365111 253.29174334 -228 253 C-228 252.67 -228 252.34 -228 252 C-225.12474331 251.94574987 -222.25052354 251.90620723 -219.375 251.875 C-218.56675781 251.85824219 -217.75851563 251.84148437 -216.92578125 251.82421875 C-212.15675062 251.78544614 -208.51599736 252.30064692 -204 254 C-200.41094915 254.16585191 -200.41094915 254.16585191 -197 253 C-195.61390253 251.56759479 -195.61390253 251.56759479 -194.4375 249.875 C-193.633125 248.92625 -192.82875 247.9775 -192 247 C-188.80868685 247.06257477 -186.83169445 247.58415277 -184 249 C-181.52994663 249.09833936 -179.09442339 249.13903081 -176.625 249.125 C-175.95210937 249.12886719 -175.27921875 249.13273438 -174.5859375 249.13671875 C-171.24719055 249.13014641 -168.19146915 249.03109003 -165 248 C-165.268125 246.948125 -165.53625 245.89625 -165.8125 244.8125 C-166 241 -166 241 -163.875 238.0625 C-160.82477699 235.87429654 -159.64336355 235.47951949 -156 236 C-155.1875 238.125 -155.1875 238.125 -155 241 C-156.44423481 243.30107561 -158.10872135 245.01646386 -160 247 C-155.71 247 -151.42 247 -147 247 C-147.33 246.34 -147.66 245.68 -148 245 C-148.4375 242.125 -148.4375 242.125 -148 239 C-145.3125 236.5625 -145.3125 236.5625 -142 235 C-139.125 235.25 -139.125 235.25 -137 236 C-136.60830113 238.66355234 -136.59435471 240.39224373 -138.11328125 242.66796875 C-139.36389317 244.1510888 -140.67864514 245.57954352 -142 247 C-136.75881575 248.74706142 -131.31166864 248.32791716 -126 247 C-125.5359375 245.2984375 -125.5359375 245.2984375 -125.0625 243.5625 C-124 240 -124 240 -123 239 C-121.33382885 238.95936168 -119.66611905 238.957279 -118 239 C-117.3125 240.8125 -117.3125 240.8125 -117 243 C-118.4375 244.625 -118.4375 244.625 -120 246 C-120 246.66 -120 247.32 -120 248 C-116.7 248.99 -113.4 249.98 -110 251 C-109.75636719 249.77539062 -109.51273437 248.55078125 -109.26171875 247.2890625 C-107.89295183 241.16356252 -105.87089874 235.29816425 -103.8125 229.375 C-103.39049316 228.15039062 -102.96848633 226.92578125 -102.53369141 225.6640625 C-99.83904293 217.91813192 -96.97095299 210.24711671 -94.00390625 202.6015625 C-93.66279312 201.72196869 -93.32167999 200.84237488 -92.9702301 199.93612671 C-91.27087075 195.56385198 -89.55780415 191.19747891 -87.82739258 186.83740234 C-87.19472919 185.22497218 -86.56215655 183.6125064 -85.9296875 182 C-85.63328873 181.26472076 -85.33688995 180.52944153 -85.0315094 179.7718811 C-83.59359449 176.08645691 -82.44087669 172.96968688 -83 169 C-83.66 168.01 -84.32 167.02 -85 166 C-89.06181816 137.2938813 -68.07833105 103.79046337 -55.94677734 78.65283203 C-52.62811447 71.74612834 -49.66208887 64.76258537 -46.875 57.625 C-40.97955953 42.63886953 -19.09829153 0 0 0 Z " fill="#181818" transform="translate(269,27)"/>
<path d="M0 0 C0.27848236 8.23707145 -0.39550329 15.76373818 -2.125 23.8125 C-2.34800781 24.88201904 -2.57101562 25.95153809 -2.80078125 27.0534668 C-11.23463106 66.67450501 -11.23463106 66.67450501 -23 82 C-22.030625 81.814375 -21.06125 81.62875 -20.0625 81.4375 C-18.5465625 81.2209375 -18.5465625 81.2209375 -17 81 C-16.67 81.33 -16.34 81.66 -16 82 C-16.08970847 85.35371655 -16.57367134 88.67463642 -17 92 C-17.11214844 92.94488281 -17.22429687 93.88976562 -17.33984375 94.86328125 C-18.65411705 103.91299168 -21.6906373 108.32735344 -28.8125 113.9375 C-30.2010813 114.96817617 -31.59447421 115.99255341 -33 117 C-32.15695313 116.83242187 -31.31390625 116.66484375 -30.4453125 116.4921875 C-28.80175781 116.18667969 -28.80175781 116.18667969 -27.125 115.875 C-25.48917969 115.56175781 -25.48917969 115.56175781 -23.8203125 115.2421875 C-22.88960937 115.16226563 -21.95890625 115.08234375 -21 115 C-20.34 115.66 -19.68 116.32 -19 117 C-19.22555373 120.40908348 -20.16067343 123.6945622 -21 127 C-21.20882812 127.83144531 -21.41765625 128.66289062 -21.6328125 129.51953125 C-23.08328221 134.54615904 -24.37636311 137.20655271 -29 140 C-30.04027344 140.53173828 -30.04027344 140.53173828 -31.1015625 141.07421875 C-42.90762611 147.16000696 -53.16696295 155.56701098 -63.7109375 163.578125 C-64.44546143 164.13419434 -65.17998535 164.69026367 -65.93676758 165.26318359 C-67.32843383 166.3184013 -68.71645295 167.37845054 -70.1003418 168.44384766 C-74.77823756 172 -74.77823756 172 -77 172 C-77.10699219 172.83273438 -77.21398437 173.66546875 -77.32421875 174.5234375 C-78.08134826 178.41849684 -79.37867884 181.94412712 -80.8125 185.625 C-83.37364493 192.35418717 -85.73782995 199.13570686 -87.9921875 205.97265625 C-88.38530373 207.16371979 -88.38530373 207.16371979 -88.78636169 208.37884521 C-90.1118277 212.40217243 -91.4279869 216.42835599 -92.7355957 220.45751953 C-93.23372563 221.97563881 -93.73201041 223.49370728 -94.23046875 225.01171875 C-94.45012299 225.69766617 -94.66977722 226.38361359 -94.89608765 227.09034729 C-97.89379852 236.1756798 -102.36986464 245.01959334 -109 252 C-114.05397937 253.28646748 -118.2504133 251.42072903 -122.984375 249.55859375 C-125.17719278 248.74900717 -125.17719278 248.74900717 -128 250 C-130.37346745 250.0949387 -132.74963954 250.12987754 -135.125 250.125 C-137.01605469 250.12886719 -137.01605469 250.12886719 -138.9453125 250.1328125 C-142 250 -142 250 -143 249 C-144.80946925 249.2435824 -146.61853595 249.49043155 -148.42578125 249.75 C-151.45042262 250.04374362 -154.39958945 249.99448308 -157.4375 249.9375 C-162.23151269 249.8876777 -166.33670391 250.36979736 -170.9609375 251.546875 C-176.41426383 252.7587253 -180.86086103 252.0570976 -186.125 250.625 C-188.62848089 249.97120242 -188.62848089 249.97120242 -191 250 C-192.83565892 251.33660271 -194.02329738 252.8266317 -195.44921875 254.5859375 C-197.47402081 256.43223056 -198.66309285 256.47228034 -201.375 256.5 C-204.92426801 256.25867332 -208.18321996 255.49448266 -211.60546875 254.51171875 C-216.96982345 253.36533952 -222.53365111 253.29174334 -228 253 C-228 252.67 -228 252.34 -228 252 C-225.12474331 251.94574987 -222.25052354 251.90620723 -219.375 251.875 C-218.56675781 251.85824219 -217.75851563 251.84148437 -216.92578125 251.82421875 C-212.15675062 251.78544614 -208.51599736 252.30064692 -204 254 C-200.41094915 254.16585191 -200.41094915 254.16585191 -197 253 C-195.61390253 251.56759479 -195.61390253 251.56759479 -194.4375 249.875 C-193.633125 248.92625 -192.82875 247.9775 -192 247 C-188.80868685 247.06257477 -186.83169445 247.58415277 -184 249 C-181.52994663 249.09833936 -179.09442339 249.13903081 -176.625 249.125 C-175.95210937 249.12886719 -175.27921875 249.13273438 -174.5859375 249.13671875 C-171.24719055 249.13014641 -168.19146915 249.03109003 -165 248 C-165.268125 246.948125 -165.53625 245.89625 -165.8125 244.8125 C-166 241 -166 241 -163.875 238.0625 C-160.82477699 235.87429654 -159.64336355 235.47951949 -156 236 C-155.1875 238.125 -155.1875 238.125 -155 241 C-156.44423481 243.30107561 -158.10872135 245.01646386 -160 247 C-155.71 247 -151.42 247 -147 247 C-147.33 246.34 -147.66 245.68 -148 245 C-148.4375 242.125 -148.4375 242.125 -148 239 C-145.3125 236.5625 -145.3125 236.5625 -142 235 C-139.125 235.25 -139.125 235.25 -137 236 C-136.60830113 238.66355234 -136.59435471 240.39224373 -138.11328125 242.66796875 C-139.36389317 244.1510888 -140.67864514 245.57954352 -142 247 C-136.75881575 248.74706142 -131.31166864 248.32791716 -126 247 C-125.5359375 245.2984375 -125.5359375 245.2984375 -125.0625 243.5625 C-124 240 -124 240 -123 239 C-121.33382885 238.95936168 -119.66611905 238.957279 -118 239 C-117.3125 240.8125 -117.3125 240.8125 -117 243 C-118.4375 244.625 -118.4375 244.625 -120 246 C-120 246.66 -120 247.32 -120 248 C-116.7 248.99 -113.4 249.98 -110 251 C-109.75636719 249.77539062 -109.51273437 248.55078125 -109.26171875 247.2890625 C-107.89295183 241.16356252 -105.87089874 235.29816425 -103.8125 229.375 C-103.39049316 228.15039062 -102.96848633 226.92578125 -102.53369141 225.6640625 C-99.83904293 217.91813192 -96.97095299 210.24711671 -94.00390625 202.6015625 C-93.66279312 201.72196869 -93.32167999 200.84237488 -92.9702301 199.93612671 C-91.27087075 195.56385198 -89.55780415 191.19747891 -87.82739258 186.83740234 C-87.19472919 185.22497218 -86.56215655 183.6125064 -85.9296875 182 C-85.63328873 181.26472076 -85.33688995 180.52944153 -85.0315094 179.7718811 C-83.59359449 176.08645691 -82.44087669 172.96968688 -83 169 C-83.66 168.01 -84.32 167.02 -85 166 C-89.06181816 137.2938813 -68.07833105 103.79046337 -55.94677734 78.65283203 C-52.62811447 71.74612834 -49.66208887 64.76258537 -46.875 57.625 C-40.97955953 42.63886953 -19.09829153 0 0 0 Z M-10.9375 9.1875 C-11.61119629 9.82171875 -12.28489258 10.4559375 -12.97900391 11.109375 C-29.13575528 26.54864537 -39.31326014 43.54782065 -48 64 C-48.35529785 64.83418457 -48.7105957 65.66836914 -49.07666016 66.52783203 C-49.42905762 67.35524902 -49.78145508 68.18266602 -50.14453125 69.03515625 C-50.67868652 70.28897095 -50.67868652 70.28897095 -51.22363281 71.56811523 C-51.95232601 73.27923717 -52.67952883 74.99099453 -53.40527344 76.70336914 C-56.99537908 85.1177762 -60.84619808 93.40780228 -64.7512207 101.68017578 C-67.75379553 108.09327573 -70.4445041 114.55510609 -72.91308594 121.19287109 C-73.83750201 123.58032303 -74.84909362 125.84124667 -76 128.125 C-81.045064 139.35233505 -85.14973502 153.67485256 -83 166 C-81.52675116 167.6585444 -81.52675116 167.6585444 -80 169 C-79.65445068 168.15856445 -79.30890137 167.31712891 -78.95288086 166.45019531 C-75.31364406 157.59183319 -71.66662775 148.73670393 -68.01416016 139.88378906 C-66.71527959 136.73538926 -65.41807011 133.58631096 -64.12255859 130.43652344 C-55.07891007 108.45803962 -45.6863989 86.65865329 -35.90234375 64.99932861 C-35.04599992 63.1019223 -34.19245095 61.20328697 -33.33984375 59.30419922 C-27.82107463 47.03738627 -22.06596503 34.91155153 -15.9375 22.9375 C-15.11439331 21.31098511 -15.11439331 21.31098511 -14.2746582 19.65161133 C-13.75991943 18.66185303 -13.24518066 17.67209473 -12.71484375 16.65234375 C-12.26230225 15.77570068 -11.80976074 14.89905762 -11.34350586 13.99584961 C-10 12 -10 12 -7 11 C-9.73614734 18.47712153 -12.71569201 25.72493417 -16.13110352 32.91821289 C-18.66030587 38.24700153 -21.09123047 43.61578148 -23.5 49 C-26.14171474 54.89732954 -28.81150264 60.77784417 -31.5625 66.625 C-37.23811106 78.73883652 -42.61147075 90.92005241 -47.5 103.375 C-52.69431791 116.58221756 -58.47460013 129.5126825 -64.28735352 142.4564209 C-65.55657714 145.28517097 -66.82130453 148.11590745 -68.08374023 150.94769287 C-68.6990557 152.32592245 -69.31643667 153.70323158 -69.93579102 155.07965088 C-70.81395192 157.03542198 -71.68173894 158.99547073 -72.546875 160.95703125 C-73.04541992 162.07698486 -73.54396484 163.19693848 -74.05761719 164.35083008 C-74.36860352 165.22505615 -74.67958984 166.09928223 -75 167 C-74.67 167.66 -74.34 168.32 -74 169 C-73.51869629 168.64397705 -73.03739258 168.2879541 -72.54150391 167.92114258 C-67.5899279 164.26044208 -62.63160835 160.60903439 -57.66894531 156.96337891 C-55.94777788 155.69722189 -54.22824966 154.42883208 -52.51074219 153.15771484 C-50.17845983 151.43205428 -47.84122418 149.71350647 -45.5 148 C-44.75564697 147.45424316 -44.01129395 146.90848633 -43.24438477 146.34619141 C-39.15524974 143.39660646 -35.10858059 140.90378896 -30.5625 138.6875 C-27.08332543 136.91067384 -25.37736281 135.7390429 -23.9375 132.0625 C-23.59256643 130.71622943 -23.27913387 129.36143597 -23 128 C-22.608125 126.7625 -22.21625 125.525 -21.8125 124.25 C-20.83830958 120.91157555 -20.83830958 120.91157555 -21 117 C-32.810103 117.41438958 -44.0471997 122.90424697 -54 129 C-54.495 128.505 -54.495 128.505 -55 128 C-53.60201172 127.30777344 -53.60201172 127.30777344 -52.17578125 126.6015625 C-42.98210596 121.94102313 -34.83128493 116.70935617 -27 110 C-26.32839844 109.42765625 -25.65679687 108.8553125 -24.96484375 108.265625 C-19.19536255 102.53867069 -17.86064069 93.5665267 -17.8125 85.6875 C-17.874375 84.800625 -17.93625 83.91375 -18 83 C-21.3 83.99 -24.6 84.98 -28 86 C-27.43152344 85.319375 -26.86304688 84.63875 -26.27734375 83.9375 C-12.48564444 66.62304611 -8.25878664 46.21819286 -4.1875 24.875 C-3.85854736 23.16799927 -3.85854736 23.16799927 -3.52294922 21.42651367 C-2.37988114 15.17377445 -1.76487022 9.35522214 -2 3 C-5.7379121 3 -8.33103258 6.73284698 -10.9375 9.1875 Z " fill="#D5D5D5" transform="translate(269,27)"/>
<path d="M0 0 C0.51998897 9.99534362 -1.05951027 19.25134921 -3 29 C-5.35140541 25.47289189 -5.12057401 24.72399599 -4.5390625 20.67578125 C-4.39726562 19.64775391 -4.25546875 18.61972656 -4.109375 17.56054688 C-3.94953125 16.48869141 -3.7896875 15.41683594 -3.625 14.3125 C-3.47289062 13.22904297 -3.32078125 12.14558594 -3.1640625 11.02929688 C-2.78653149 8.35118628 -2.39811832 5.67511457 -2 3 C-26.44112549 22.40912907 -39.2278187 44.70551635 -50.84667969 73.19433594 C-54.74639412 82.68110948 -58.98263537 92.00459715 -63.36914062 101.27416992 C-65.96048362 106.80406676 -68.29615866 112.42780176 -70.58154297 118.09008789 C-71.99227786 121.58247788 -73.45582663 124.99643222 -75.125 128.375 C-80.33385533 140.0383065 -83.34648166 153.24689512 -82 166 C-81.67 166.66 -81.34 167.32 -81 168 C-75.26750774 155.14974896 -69.83208543 142.20023587 -64.58737183 129.14511108 C-58.52464565 114.05644966 -52.21956193 99.12770779 -45.49902344 84.31738281 C-43.91387124 80.80939454 -42.34898246 77.29268806 -40.7890625 73.7734375 C-21.82527581 31.0372729 -21.82527581 31.0372729 -10 11 C-9.01 11 -8.02 11 -7 11 C-9.27642556 20.19155286 -13.27791097 28.57928428 -17.25 37.125 C-18.54931089 39.93898433 -19.84505179 42.75460577 -21.140625 45.5703125 C-21.46067001 46.26402954 -21.78071503 46.95774658 -22.11045837 47.67248535 C-24.68135848 53.26090144 -27.16466812 58.8849044 -29.60321045 64.53225708 C-31.45914246 68.81869055 -33.41999353 73.03815625 -35.4375 77.25 C-38.12352775 82.91619493 -40.51523 88.66592584 -42.8125 94.5 C-46.77089045 104.54426081 -51.05516801 114.42588635 -55.38964844 124.3125 C-58.45612979 131.32299468 -61.48288056 138.35084324 -64.51782227 145.37503052 C-65.61771363 147.92063632 -66.71797656 150.46608121 -67.81835938 153.01147461 C-69.54584057 157.00753411 -71.27301274 161.00372702 -73 165 C-73.66 165 -74.32 165 -75 165 C-72.77280593 157.73231409 -69.83355676 150.92468241 -66.6756897 144.01525879 C-65.19984921 140.78338466 -63.74100032 137.54385334 -62.28125 134.3046875 C-61.99353226 133.66684326 -61.70581451 133.02899902 -61.40937805 132.37182617 C-55.90839991 120.15610837 -50.89032824 107.75842432 -45.9375 95.3125 C-41.2392244 83.5126138 -36.45506819 71.83823187 -30.7265625 60.49609375 C-27.26769231 53.63465653 -24.04967392 46.67950222 -20.91772461 39.66357422 C-20.04328591 37.70700826 -19.16149572 35.7538587 -18.27929688 33.80078125 C-17.71831498 32.54967413 -17.15775107 31.29837949 -16.59765625 30.046875 C-16.09758057 28.93151367 -15.59750488 27.81615234 -15.08227539 26.66699219 C-13.87465931 24.17083359 -13.87465931 24.17083359 -14 22 C-33.23676106 61.45793086 -50.89877861 101.63038808 -66.98510742 142.47753906 C-69.28162811 148.29065533 -71.78508676 153.95081344 -74.484375 159.58984375 C-78.03016807 167.56787816 -80.9619949 175.81780979 -84 184 C-84.66 183.34 -85.32 182.68 -86 182 C-85.505 180.783125 -85.01 179.56625 -84.5 178.3125 C-83.29278125 175.07417861 -82.50135709 172.49050035 -83 169 C-83.66 168.01 -84.32 167.02 -85 166 C-89.06181816 137.2938813 -68.07833105 103.79046337 -55.94677734 78.65283203 C-52.62811447 71.74612834 -49.66208887 64.76258537 -46.875 57.625 C-40.97955953 42.63886953 -19.09829153 0 0 0 Z " fill="#D6D6D6" transform="translate(269,27)"/>
<path d="M0 0 C1.40750706 4.22252118 -0.41751565 6.7316452 -2.234375 10.54296875 C-2.58322754 11.29453751 -2.93208008 12.04610626 -3.29150391 12.82044983 C-4.04345817 14.43714112 -4.7999367 16.05173414 -5.5604248 17.66442871 C-6.75811991 20.2047222 -7.94357669 22.75040665 -9.12597656 25.29785156 C-11.95913358 31.39474784 -14.81287635 37.48184846 -17.6796875 43.56298828 C-23.68958353 56.31168326 -29.1134779 69.17904119 -34.19934082 82.31695557 C-38.03699382 92.21882707 -42.10077989 101.95824904 -46.5 111.625 C-59.37094202 139.96625262 -70.73744551 168.58393575 -80.3515625 198.19921875 C-80.70822998 199.29371338 -81.06489746 200.38820801 -81.43237305 201.51586914 C-82.07539528 203.50491167 -82.70808856 205.49734188 -83.32739258 207.49389648 C-85.17034232 213.24135623 -87.53902608 218.0497691 -91 223 C-92.33236598 219.00290205 -91.04265945 216.46606319 -89.67578125 212.66796875 C-89.41826584 211.93189896 -89.16075043 211.19582916 -88.89543152 210.43745422 C-88.04452765 208.0171079 -87.17923662 205.60221779 -86.3125 203.1875 C-85.71870299 201.5143396 -85.12495341 199.84116237 -84.53125 198.16796875 C-79.48910041 184.04149796 -73.9967608 170.12319821 -68.30981445 156.24560547 C-66.98438795 152.96131471 -65.71033017 149.66103495 -64.44921875 146.3515625 C-62.19989516 140.46708452 -59.7921627 134.66555125 -57.3125 128.875 C-56.34541337 126.60456717 -55.37934592 124.33370006 -54.4140625 122.0625 C-54.1518541 121.44559296 -53.88964569 120.82868591 -53.61949158 120.19308472 C-51.31538397 114.76290342 -49.04205075 109.32009071 -46.7734375 103.875 C-37.72220656 82.15610047 -28.55780287 60.50121366 -19 39 C-18.53126465 37.94006836 -18.0625293 36.88013672 -17.57958984 35.78808594 C-12.17745613 23.59173772 -6.42085862 11.69402753 0 0 Z " fill="#2E2E2E" transform="translate(255,48)"/>
<path d="M0 0 C0.39169887 2.66355234 0.40564529 4.39224373 -1.11328125 6.66796875 C-2.36389317 8.1510888 -3.67864514 9.57954352 -5 11 C0.24118425 12.74706142 5.68833136 12.32791716 11 11 C11.4640625 9.2984375 11.4640625 9.2984375 11.9375 7.5625 C13 4 13 4 14 3 C15.66617115 2.95936168 17.33388095 2.957279 19 3 C19.6875 4.8125 19.6875 4.8125 20 7 C18.5625 8.625 18.5625 8.625 17 10 C17 10.66 17 11.32 17 12 C17.99 12.66 18.98 13.32 20 14 C16.31434068 15.22855311 15.47524187 14.39009675 12 13 C11.01 13.33 10.02 13.66 9 14 C6.62653255 14.0949387 4.25036046 14.12987754 1.875 14.125 C-0.01605469 14.12886719 -0.01605469 14.12886719 -1.9453125 14.1328125 C-5 14 -5 14 -6 13 C-7.80946925 13.2435824 -9.61853595 13.49043155 -11.42578125 13.75 C-14.45042262 14.04374362 -17.39958945 13.99448308 -20.4375 13.9375 C-25.23151269 13.8876777 -29.33670391 14.36979736 -33.9609375 15.546875 C-39.41426383 16.7587253 -43.86086103 16.0570976 -49.125 14.625 C-51.62848089 13.97120242 -51.62848089 13.97120242 -54 14 C-55.83565892 15.33660271 -57.02329738 16.8266317 -58.44921875 18.5859375 C-60.47402081 20.43223056 -61.66309285 20.47228034 -64.375 20.5 C-67.92426801 20.25867332 -71.18321996 19.49448266 -74.60546875 18.51171875 C-79.96982345 17.36533952 -85.53365111 17.29174334 -91 17 C-91 16.67 -91 16.34 -91 16 C-88.12474331 15.94574987 -85.25052354 15.90620723 -82.375 15.875 C-81.56675781 15.85824219 -80.75851563 15.84148437 -79.92578125 15.82421875 C-75.15675062 15.78544614 -71.51599736 16.30064692 -67 18 C-63.41094915 18.16585191 -63.41094915 18.16585191 -60 17 C-58.61390253 15.56759479 -58.61390253 15.56759479 -57.4375 13.875 C-56.633125 12.92625 -55.82875 11.9775 -55 11 C-51.80868685 11.06257477 -49.83169445 11.58415277 -47 13 C-44.52994663 13.09833936 -42.09442339 13.13903081 -39.625 13.125 C-38.61566406 13.13080078 -38.61566406 13.13080078 -37.5859375 13.13671875 C-34.24719055 13.13014641 -31.19146915 13.03109003 -28 12 C-28.268125 10.948125 -28.53625 9.89625 -28.8125 8.8125 C-29 5 -29 5 -26.875 2.0625 C-23.82477699 -0.12570346 -22.64336355 -0.52048051 -19 0 C-18.1875 2.125 -18.1875 2.125 -18 5 C-19.44423481 7.30107561 -21.10872135 9.01646386 -23 11 C-18.71 11 -14.42 11 -10 11 C-10.495 10.01 -10.495 10.01 -11 9 C-11.4375 6.125 -11.4375 6.125 -11 3 C-7.25196933 -0.39937665 -4.88316711 -1.72347075 0 0 Z " fill="#D6D6D6" transform="translate(132,263)"/>
<path d="M0 0 C1 3 1 3 -0.1953125 5.58984375 C-1.15050781 7.24693359 -1.15050781 7.24693359 -2.125 8.9375 C-21.30008092 43.5469142 -35.60143304 81.39595973 -50.56933594 117.95385742 C-50.90588699 118.77305161 -51.24243805 119.59224579 -51.58918762 120.43626404 C-52.20879151 121.94506792 -52.82596711 123.45487277 -53.43998718 124.96595764 C-55.41271187 129.76549257 -57.63550611 134.3803268 -60 139 C-61.15015947 135.54952159 -60.88601692 135.05156708 -59.54394531 131.83349609 C-59.1985672 130.99253891 -58.85318909 130.15158173 -58.49734497 129.28514099 C-58.11150238 128.37377884 -57.72565979 127.46241669 -57.328125 126.5234375 C-56.93478973 125.57424942 -56.54145447 124.62506134 -56.13619995 123.64710999 C-54.85045527 120.55228136 -53.55069807 117.46357048 -52.25 114.375 C-51.36260742 112.25029476 -50.47572658 110.12537571 -49.58935547 108.00024414 C-43.98544615 94.59377825 -38.30206992 81.22613246 -32.33642578 67.97607422 C-30.8366167 64.63616323 -29.35349866 61.28907694 -27.87109375 57.94140625 C-22.58151269 46.01666365 -17.19359922 34.14322501 -11.5625 22.375 C-10.85492554 20.89290039 -10.85492554 20.89290039 -10.13305664 19.38085938 C-6.95878294 12.80417334 -3.55189611 6.3802147 0 0 Z " fill="#D5D5D5" transform="translate(256,43)"/>
<path d="M0 0 C0.39169887 2.66355234 0.40564529 4.39224373 -1.11328125 6.66796875 C-2.36389317 8.1510888 -3.67864514 9.57954352 -5 11 C0.24118425 12.74706142 5.68833136 12.32791716 11 11 C11.309375 9.865625 11.61875 8.73125 11.9375 7.5625 C13 4 13 4 14 3 C15.66617115 2.95936168 17.33388095 2.957279 19 3 C19.6875 4.8125 19.6875 4.8125 20 7 C18.5625 8.625 18.5625 8.625 17 10 C17 10.66 17 11.32 17 12 C17.99 12.66 18.98 13.32 20 14 C16.31434068 15.22855311 15.47524187 14.39009675 12 13 C11.01 13.33 10.02 13.66 9 14 C6.62653255 14.0949387 4.25036046 14.12987754 1.875 14.125 C-0.01605469 14.12886719 -0.01605469 14.12886719 -1.9453125 14.1328125 C-5 14 -5 14 -6 13 C-8.01964199 12.92755947 -10.04167124 12.91622812 -12.0625 12.9375 C-13.16722656 12.94652344 -14.27195312 12.95554687 -15.41015625 12.96484375 C-16.26480469 12.97644531 -17.11945313 12.98804688 -18 13 C-18 12.67 -18 12.34 -18 12 C-15.36 11.67 -12.72 11.34 -10 11 C-10.33 10.34 -10.66 9.68 -11 9 C-11.4375 6.125 -11.4375 6.125 -11 3 C-7.25196933 -0.39937665 -4.88316711 -1.72347075 0 0 Z " fill="#DEDEDE" transform="translate(132,263)"/>
<path d="M0 0 C1.16543671 3.49631012 0.8511537 4.01018717 -0.55126953 7.26513672 C-0.91560089 8.12388397 -1.27993225 8.98263123 -1.65530396 9.86740112 C-2.06038177 10.79545563 -2.46545959 11.72351013 -2.8828125 12.6796875 C-3.29409393 13.64343292 -3.70537537 14.60717834 -4.12911987 15.60012817 C-5.45208889 18.69569641 -6.78799901 21.78546964 -8.125 24.875 C-9.86046545 28.91248299 -11.59059089 32.95224117 -13.3203125 36.9921875 C-13.73726379 37.96226746 -14.15421509 38.93234741 -14.58380127 39.93182373 C-17.20817028 46.06105039 -19.6910835 52.21036952 -21.96044922 58.48095703 C-23.0707974 61.17155649 -24.44469938 63.54376643 -26 66 C-27.16390899 62.50827304 -26.8474402 61.96079875 -25.48046875 58.69067383 C-25.12259277 57.8215889 -24.7647168 56.95250397 -24.39599609 56.05708313 C-23.99719238 55.11656601 -23.59838867 54.17604889 -23.1875 53.20703125 C-22.78096191 52.2282048 -22.37442383 51.24937836 -21.95556641 50.2408905 C-20.6459328 47.09430028 -19.32300294 43.95348898 -18 40.8125 C-17.13848106 38.74579344 -16.27779461 36.67873964 -15.41796875 34.61132812 C-11.65097966 25.57349052 -7.84093061 16.55405521 -3.9375 7.57421875 C-3.65052246 6.91106155 -3.36354492 6.24790436 -3.06787109 5.56465149 C-1.1206312 1.1206312 -1.1206312 1.1206312 0 0 Z " fill="#DCDCDC" transform="translate(222,116)"/>
<path d="M0 0 C0.66 0.33 1.32 0.66 2 1 C1.566875 2.59714844 1.566875 2.59714844 1.125 4.2265625 C-3.18038507 19.19952396 -3.18038507 19.19952396 -1 34 C0.98 29.38 2.96 24.76 5 20 C5.66 20.33 6.32 20.66 7 21 C5.54051151 25.53907903 3.85714592 29.96030589 2.0625 34.375 C-0.02928585 39.55868695 -2.07246767 44.75282865 -4 50 C-4.66 49.34 -5.32 48.68 -6 48 C-5.505 46.783125 -5.01 45.56625 -4.5 44.3125 C-3.29278125 41.07417861 -2.50135709 38.49050035 -3 35 C-3.66 34.01 -4.32 33.02 -5 32 C-6.4228159 20.58751877 -3.66811202 10.70302686 0 0 Z " fill="#D3D3D3" transform="translate(189,161)"/>
<path d="M0 0 C1.27927625 3.59631657 0.70570834 5.78231117 -0.4765625 9.359375 C-0.81816406 10.39320313 -1.15976563 11.42703125 -1.51171875 12.4921875 C-2.06279297 14.10480469 -2.06279297 14.10480469 -2.625 15.75 C-2.96917969 16.80960938 -3.31335938 17.86921875 -3.66796875 18.9609375 C-5.78404252 25.25450008 -8.23340055 30.52851869 -12 36 C-13.3052425 32.0842725 -12.11512682 29.70501178 -10.76171875 25.99609375 C-10.52089066 25.31700455 -10.28006256 24.63791534 -10.03193665 23.93824768 C-9.52087011 22.50356916 -9.00530506 21.07048636 -8.4855957 19.63891602 C-7.69062066 17.44610782 -6.9116591 15.24809863 -6.13476562 13.04882812 C-5.63635825 11.65591273 -5.13703966 10.26332297 -4.63671875 8.87109375 C-4.40329269 8.21274033 -4.16986664 7.5543869 -3.92936707 6.87608337 C-2.89755214 4.05374486 -2.15210304 2.15210304 0 0 Z " fill="#242424" transform="translate(176,235)"/>
<path d="M0 0 C0.51998897 9.99534362 -1.05951027 19.25134921 -3 29 C-5.35140541 25.47289189 -5.12057401 24.72399599 -4.5390625 20.67578125 C-4.39726562 19.64775391 -4.25546875 18.61972656 -4.109375 17.56054688 C-3.94953125 16.48869141 -3.7896875 15.41683594 -3.625 14.3125 C-3.47289062 13.22904297 -3.32078125 12.14558594 -3.1640625 11.02929688 C-2.78653149 8.35118628 -2.39811832 5.67511457 -2 3 C-4.31 4.65 -6.62 6.3 -9 8 C-9 7.01 -9 6.02 -9 5 C-7.5390625 3.61328125 -7.5390625 3.61328125 -5.625 2.3125 C-4.68527344 1.65701172 -4.68527344 1.65701172 -3.7265625 0.98828125 C-2 0 -2 0 0 0 Z " fill="#C5C5C5" transform="translate(269,27)"/>
<path d="M0 0 C0.66 0 1.32 0 2 0 C0.95768611 5.94118916 -0.75815429 11.39415698 -2.9375 17 C-3.19031738 17.6710376 -3.44313477 18.3420752 -3.70361328 19.03344727 C-4.38069928 20.72703088 -5.18265643 22.36947236 -6 24 C-6.99 24.33 -7.98 24.66 -9 25 C-8.40414792 19.2306386 -6.23012403 14.38338464 -3.9375 9.125 C-3.56044922 8.24585938 -3.18339844 7.36671875 -2.79492188 6.4609375 C-1.86913928 4.30468436 -0.93738089 2.15123021 0 0 Z " fill="#242424" transform="translate(221,121)"/>
<path d="M0 0 C0.66 0.33 1.32 0.66 2 1 C1.72285156 2.09957031 1.44570312 3.19914063 1.16015625 4.33203125 C-0.69665917 11.85989176 -2.41327509 19.11445024 -2.7265625 26.8984375 C-3 29 -3 29 -5 32 C-5.76307501 20.3503882 -3.76398029 10.98275678 0 0 Z " fill="#C3C3C3" transform="translate(189,161)"/>
<path d="M0 0 C1.2065625 0.0309375 1.2065625 0.0309375 2.4375 0.0625 C3.125 1.875 3.125 1.875 3.4375 4.0625 C2 5.6875 2 5.6875 0.4375 7.0625 C0.4375 7.7225 0.4375 8.3825 0.4375 9.0625 C1.4275 9.7225 2.4175 10.3825 3.4375 11.0625 C2.4475 11.3925 1.4575 11.7225 0.4375 12.0625 C-1.5625 10.5 -1.5625 10.5 -3.5625 8.0625 C-3.875 4.375 -3.875 4.375 -3.5625 1.0625 C-2.5625 0.0625 -2.5625 0.0625 0 0 Z " fill="#A5A5A5" transform="translate(148.5625,265.9375)"/>
<path d="M0 0 C-3.6975626 3.0507305 -7.80589458 5.10445631 -12.0625 7.25 C-12.78244141 7.62640625 -13.50238281 8.0028125 -14.24414062 8.390625 C-16.12445799 9.34038605 -18.06023263 10.17845147 -20 11 C-20.99 10.67 -21.98 10.34 -23 10 C-21.14572244 8.83249191 -19.28967014 7.66772683 -17.42578125 6.515625 C-15.74290992 5.46416916 -14.07441918 4.38948073 -12.41796875 3.296875 C-11.55816406 2.74515625 -10.69835937 2.1934375 -9.8125 1.625 C-8.61560547 0.83996094 -8.61560547 0.83996094 -7.39453125 0.0390625 C-4.4827549 -1.22444893 -2.98965836 -0.90273876 0 0 Z " fill="#E1E1E1" transform="translate(235,146)"/>
<path d="M0 0 C0.33 0.66 0.66 1.32 1 2 C-1.13368892 7.50472257 -4.04568831 12.60632035 -8 17 C-6.68 17.33 -5.36 17.66 -4 18 C-9.625 21 -9.625 21 -13 21 C-11.51323244 17.79829757 -9.68811101 15.04792684 -7.625 12.1875 C-4.81819286 8.23218723 -2.31474403 4.25912902 0 0 Z " fill="#D6D6D6" transform="translate(254,92)"/>
<path d="M0 0 C-0.53895377 3.7726764 -1.99535358 5.68212991 -5 8 C-7.25 7.75 -7.25 7.75 -9 7 C-8.6875 4.625 -8.6875 4.625 -8 2 C-4.77208445 -0.1519437 -3.71599191 -0.20086443 0 0 Z " fill="#2A2A2A" transform="translate(131,264)"/>
<path d="M0 0 C1.17189558 3.51568674 0.83725505 3.9991852 -0.65234375 7.23046875 C-1.01650391 8.03291016 -1.38066406 8.83535156 -1.75585938 9.66210938 C-2.34077148 10.91217773 -2.34077148 10.91217773 -2.9375 12.1875 C-3.32357422 13.03248047 -3.70964844 13.87746094 -4.10742188 14.74804688 C-5.06300701 16.83617735 -6.02743783 18.91973604 -7 21 C-8.11083984 19.25683594 -8.11083984 19.25683594 -9 17 C-8.40087891 14.98535156 -8.40087891 14.98535156 -7.2265625 12.890625 C-6.8140625 12.13652344 -6.4015625 11.38242187 -5.9765625 10.60546875 C-5.53054687 9.82816406 -5.08453125 9.05085938 -4.625 8.25 C-3.96757812 7.06083984 -3.96757812 7.06083984 -3.296875 5.84765625 C-2.21192436 3.89002792 -1.11281376 1.94188219 0 0 Z " fill="#363636" transform="translate(255,48)"/>
<path d="M0 0 C-0.37047118 2.74148672 -0.68587944 4.58593199 -2.375 6.8125 C-4 8 -4 8 -7 8 C-7.36275695 3.52599758 -7.36275695 3.52599758 -5.75 1.1875 C-4 0 -4 0 0 0 Z " fill="#202020" transform="translate(112,265)"/>
<path d="M0 0 C0.99 0 1.98 0 3 0 C2.54803755 1.60597325 2.08817673 3.20972508 1.625 4.8125 C1.36976563 5.70582031 1.11453125 6.59914063 0.8515625 7.51953125 C0 10 0 10 -2 13 C-3.36882012 8.48289361 -2.52382612 5.40216435 -1 1 C-0.67 0.67 -0.34 0.34 0 0 Z " fill="#C1C1C1" transform="translate(259,38)"/>
<path d="M0 0 C0.66 0.33 1.32 0.66 2 1 C-1.89693476 6.29983127 -6.54947539 10.36631693 -12 14 C-10.41332422 10.09714233 -7.86649519 7.66479018 -4.875 4.75 C-3.96492187 3.85796875 -3.05484375 2.9659375 -2.1171875 2.046875 C-1.41851562 1.37140625 -0.71984375 0.6959375 0 0 Z " fill="#262626" transform="translate(259,35)"/>
<path d="M0 0 C0.99 0.33 1.98 0.66 3 1 C1.92598892 3.91517292 1.22189824 5.77810176 -1 8 C-5.33643601 8.31537716 -7.32653229 8.44897847 -11 6 C-8.03 6.33 -5.06 6.66 -2 7 C-1.855625 6.21625 -1.71125 5.4325 -1.5625 4.625 C-1 2 -1 2 0 0 Z " fill="#ECECEC" transform="translate(161,271)"/>
<path d="M0 0 C0.25 2.25 0.25 2.25 0 5 C-2 7.3125 -2 7.3125 -4 9 C-4 5.42424104 -2.91159393 3.94704065 -1 1 C-2.98 1.33 -4.96 1.66 -7 2 C-7 1.34 -7 0.68 -7 0 C-4.3333581 -1.33332095 -2.83319697 -0.67102033 0 0 Z " fill="#D0D0D0" transform="translate(132,263)"/>
<path d="M0 0 C0 0.99 0 1.98 0 3 C1.32 3.33 2.64 3.66 4 4 C-1.625 7 -1.625 7 -5 7 C-3.70700306 4.11562221 -2.34058637 2.12780579 0 0 Z " fill="#E9E9E9" transform="translate(246,106)"/>
<path d="M0 0 C0.93423645 3.01031744 1.04449911 3.86650268 0 7 C-0.66 7 -1.32 7 -2 7 C-2.33 8.32 -2.66 9.64 -3 11 C-4 8 -4 8 -3.22265625 5.95703125 C-2.83980469 5.24933594 -2.45695313 4.54164063 -2.0625 3.8125 C-1.68222656 3.09707031 -1.30195313 2.38164062 -0.91015625 1.64453125 C-0.60980469 1.10183594 -0.30945313 0.55914062 0 0 Z " fill="#E6E6E6" transform="translate(194,192)"/>
<path d="M0 0 C1.39195915 4.17587745 -0.17676781 6.13474776 -2 10 C-2.66 10 -3.32 10 -4 10 C-3.52449439 8.51965236 -3.04448784 7.04074979 -2.5625 5.5625 C-2.29566406 4.73878906 -2.02882812 3.91507812 -1.75390625 3.06640625 C-1 1 -1 1 0 0 Z " fill="#242424" transform="translate(230,102)"/>
<path d="M0 0 C0.6875 1.6875 0.6875 1.6875 1 4 C-0.3125 6.75 -0.3125 6.75 -2 9 C-2.66 9 -3.32 9 -4 9 C-2.94124926 5.59687262 -1.99097846 2.98646769 0 0 Z " fill="#232323" transform="translate(246,67)"/>
<path d="M0 0 C0.66 0 1.32 0 2 0 C1.39009109 3.55780196 0.4216319 6.6828589 -1 10 C-2.1875 8.375 -2.1875 8.375 -3 6 C-1.625 2.75 -1.625 2.75 0 0 Z " fill="#2E2E2E" transform="translate(249,59)"/>
</svg>
